HIERARCHY
ROOT Hips
{
  OFFSET 0.000000 0.000000 0.000000
  CHANNELS 6 Xposition Yposition Zposition Xrotation Yrotation Zrotation
  JOINT Spine
  {
    OFFSET -6.423313 -17.000212 -13.334487
    CHANNELS 3 Xrotation Yrotation Zrotation
    JOINT Chest
    {
      OFFSET -6.423313 -17.000212 -13.334487
      CHANNELS 3 Xrotation Yrotation Zrotation
      JOINT Neck
      {
        OFFSET -8.565987 -10.465851 -10.311200
        CHANNELS 3 Xrotation Yrotation Zrotation
        JOINT Head
        {
          OFFSET -6.506337 7.210322 -3.531532
          CHANNELS 3 Xrotation Yrotation Zrotation
          End Site
          {
            OFFSET 0.0 0.0 5.0
          }
        }
      }
      JOINT LeftShoulder
      {
        OFFSET 16.191032 -0.222631 -5.090955
        CHANNELS 3 Xrotation Yrotation Zrotation
        JOINT LeftArm
        {
          OFFSET 10.448869 20.915173 -1.238295
          CHANNELS 3 Xrotation Yrotation Zrotation
          JOINT LeftForeArm
          {
            OFFSET 6.900823 23.754111 -0.858906
            CHANNELS 3 Xrotation Yrotation Zrotation
            JOINT LeftHand
            {
              OFFSET 0.929018 7.328410 -2.677089
              CHANNELS 3 Xrotation Yrotation Zrotation
              End Site
              {
                OFFSET 0.0 0.0 5.0
              }
            }
          }
        }
      }
      JOINT RightShoulder
      {
        OFFSET -16.191032 0.222631 5.090955
        CHANNELS 3 Xrotation Yrotation Zrotation
        JOINT RightArm
        {
          OFFSET -13.712075 14.695798 8.321647
          CHANNELS 3 Xrotation Yrotation Zrotation
          JOINT RightForeArm
          {
            OFFSET -17.210048 12.326384 -1.738171
            CHANNELS 3 Xrotation Yrotation Zrotation
            JOINT RightHand
            {
              OFFSET 5.000000 0.000000 0.000000
              CHANNELS 3 Xrotation Yrotation Zrotation
              End Site
              {
                OFFSET 0.0 0.0 5.0
              }
            }
          }
        }
      }
    }
  }
  JOINT LeftUpLeg
  {
    OFFSET 12.282434 -0.310965 -0.080493
    CHANNELS 3 Xrotation Yrotation Zrotation
    JOINT LeftLeg
    {
      OFFSET 9.663075 41.630832 -4.887251
      CHANNELS 3 Xrotation Yrotation Zrotation
      JOINT LeftFoot
      {
        OFFSET -5.787469 21.882853 26.702196
        CHANNELS 3 Xrotation Yrotation Zrotation
        JOINT LeftToeBase
        {
          OFFSET 2.886885 12.176341 -6.834447
          CHANNELS 3 Xrotation Yrotation Zrotation
          End Site
          {
            OFFSET 0.0 0.0 5.0
          }
        }
      }
    }
  }
  JOINT RightUpLeg
  {
    OFFSET -12.282434 0.310965 0.080493
    CHANNELS 3 Xrotation Yrotation Zrotation
    JOINT RightLeg
    {
      OFFSET -1.472860 28.795469 -20.184857
      CHANNELS 3 Xrotation Yrotation Zrotation
      JOINT RightFoot
      {
        OFFSET 0.086358 39.286014 3.546105
        CHANNELS 3 Xrotation Yrotation Zrotation
        JOINT RightToeBase
        {
          OFFSET -4.442337 10.512209 -13.824183
          CHANNELS 3 Xrotation Yrotation Zrotation
          End Site
          {
            OFFSET 0.0 0.0 5.0
          }
        }
      }
    }
  }
}
MOTION
Frames: 9
Frame Time: 0.016667
0.000000 0.000000 0.000000 -0.255203 19.492434 4.558435 28.530496 -8.879898 -0.671201 4.091354 19.840461 25.411143 32.987511 50.506095 12.819496 0.000000 0.000000 0.000000 15.384850 -2.843406 23.431178 57.586104 -2.902808 25.614231 43.003800 -0.581169 6.868032 0.000000 0.000000 0.000000 28.291457 20.396818 22.854659 22.324989 38.793165 9.201787 -80.424592 -57.481414 -114.059425 0.000000 0.000000 0.000000 4.618485 -1.715230 -3.935565 29.860527 9.084278 -4.270264 9.269180 9.028635 17.247507 0.000000 0.000000 0.000000 -19.392768 2.821031 7.818729 -1.049165 1.061946 -10.617055 -2.099170 22.538151 17.439512 0.000000 0.000000 0.000000
0.000000 0.000000 0.000000 -0.136086 11.597668 4.531919 25.823493 -8.091270 -0.688058 5.271978 13.805700 24.939892 24.764036 42.671534 16.135177 0.000000 0.000000 0.000000 18.861010 -4.079543 22.209054 57.518973 -4.467277 22.979468 40.503873 -0.726421 6.429713 0.000000 0.000000 0.000000 22.950381 13.544936 25.448979 14.221498 32.371782 18.782717 -62.693284 -47.808968 -107.916642 0.000000 0.000000 0.000000 4.793473 -1.895011 -4.734547 27.122023 8.686454 -4.122122 13.645015 7.378973 15.149710 0.000000 0.000000 0.000000 -21.114481 1.585202 5.593726 -5.381283 0.885643 -6.331630 1.018101 20.494492 14.239594 0.000000 0.000000 0.000000
0.000000 0.000000 0.000000 -0.056537 6.738437 4.343807 24.064314 -7.465814 -0.918657 6.024620 9.643381 24.628843 15.537149 35.925066 22.101162 0.000000 0.000000 0.000000 14.964251 -2.980772 22.126468 51.138471 -4.949648 20.751661 32.019704 0.299262 6.796804 0.000000 0.000000 0.000000 17.838093 6.249082 27.287224 7.574719 21.785768 23.322715 -51.872260 -35.601991 -113.135479 0.000000 0.000000 0.000000 5.539193 -2.222115 -5.416963 24.982192 8.241820 -3.850926 15.339006 6.720470 14.407143 0.000000 0.000000 0.000000 -18.777551 1.825491 5.599865 -5.434342 0.793123 -5.642257 -0.051839 18.387295 13.373253 0.000000 0.000000 0.000000
0.000000 0.000000 0.000000 -0.019627 4.075221 4.231053 23.580272 -7.332745 -0.893072 5.936808 8.938015 23.737350 13.309164 30.073303 19.781047 0.000000 0.000000 0.000000 17.071122 -3.844907 20.909323 52.156868 -7.438494 16.373325 32.507395 -8.593405 -5.184944 0.000000 0.000000 0.000000 16.943393 4.158213 29.124893 7.628164 23.676290 25.792291 -49.136678 -35.743158 -109.608821 0.000000 0.000000 0.000000 4.343040 -2.092303 -6.727746 25.168056 6.822420 -1.962273 15.645788 6.339508 13.918887 0.000000 0.000000 0.000000 -17.465251 1.311752 4.292813 -4.699732 0.449414 -3.330269 -0.113648 18.116249 13.217485 0.000000 0.000000 0.000000
0.000000 0.000000 0.000000 -0.006302 3.581118 3.924429 22.963794 -7.349346 -0.471546 5.911111 8.297508 23.175828 12.464163 28.142451 19.083453 0.000000 0.000000 0.000000 14.193239 -2.847574 21.663692 45.807384 -10.199098 8.229960 24.401179 -13.782164 -16.003584 0.000000 0.000000 0.000000 16.024595 1.808186 31.098545 4.362454 18.799030 30.404330 -42.331572 -31.178517 -108.447826 0.000000 0.000000 0.000000 2.856449 -1.721651 -7.215932 22.440393 6.058815 -1.508505 18.478554 6.443860 14.391878 0.000000 0.000000 0.000000 -8.034582 2.335841 4.528934 -1.770379 0.336639 -3.142193 3.145373 17.297287 10.963794 0.000000 0.000000 0.000000
0.000000 0.000000 0.000000 -0.003154 3.325830 3.885974 19.745438 -6.385173 -0.459819 5.939639 8.281291 23.275942 11.523550 27.270542 19.558599 0.000000 0.000000 0.000000 12.249623 -2.107483 22.740260 41.466428 -11.389261 2.998956 19.718408 -14.069531 -19.141153 0.000000 0.000000 0.000000 15.281952 0.334558 31.731550 3.336671 16.608929 31.283737 -40.653113 -29.637240 -108.932767 0.000000 0.000000 0.000000 2.112473 -1.522354 -7.395352 21.954671 4.414729 0.409636 19.990285 6.052303 14.062650 0.000000 0.000000 0.000000 -8.169592 2.633205 5.044952 -1.910138 0.387427 -3.576914 1.215279 17.969787 12.412611 0.000000 0.000000 0.000000
0.000000 0.000000 0.000000 0.005072 2.165166 4.028678 16.154871 -5.413510 -0.198636 6.105962 7.702968 23.515309 11.275834 25.759671 18.370112 0.000000 0.000000 0.000000 15.244366 -3.423149 20.289749 45.245964 -13.480182 1.096683 20.173431 -14.405096 -19.404760 0.000000 0.000000 0.000000 14.435302 -1.087318 31.937959 2.968572 16.456066 32.613300 -35.912449 -27.615399 -105.649468 0.000000 0.000000 0.000000 1.533503 -1.367524 -7.547924 22.535608 0.946534 4.768946 20.438924 6.174666 14.269130 0.000000 0.000000 0.000000 -6.336845 2.823484 5.033400 -2.926623 0.389178 -3.296097 1.271568 16.984440 11.708449 0.000000 0.000000 0.000000
0.000000 0.000000 0.000000 0.000015 2.249529 4.351577 14.400116 -5.144177 0.293248 5.760362 9.584908 23.506140 12.358436 25.178303 16.198743 0.000000 0.000000 0.000000 14.018792 -3.043622 20.336139 43.900090 -14.590916 -2.183355 17.571305 -14.701504 -21.567098 0.000000 0.000000 0.000000 13.229228 -3.137747 32.208746 3.475675 18.056438 32.833659 -32.084614 -25.948090 -102.594084 0.000000 0.000000 0.000000 1.758683 -1.464424 -7.751905 23.373708 -2.265988 8.922756 21.679970 7.238326 15.720183 0.000000 0.000000 0.000000 -4.759405 2.755750 4.659764 -3.942794 0.359494 -2.804022 -0.251328 16.085945 11.865892 0.000000 0.000000 0.000000
0.000000 0.000000 0.000000 -0.004178 2.100251 4.867867 11.370983 -4.847298 1.373103 5.396198 10.380607 22.590867 14.334004 24.515531 12.713756 0.000000 0.000000 0.000000 12.341248 -2.429016 20.983872 43.365802 -16.477188 -6.543497 16.779852 -16.445117 -25.057093 0.000000 0.000000 0.000000 13.073945 -3.543561 32.455264 3.106607 17.073064 32.940837 -32.671552 -26.275435 -102.937685 0.000000 0.000000 0.000000 1.761859 -1.489025 -7.922081 26.068190 -4.086894 12.235112 22.692879 7.207685 15.770788 0.000000 0.000000 0.000000 -5.063414 2.486779 4.289757 -3.575134 0.168294 -1.316733 -2.645996 13.813464 11.442777 0.000000 0.000000 0.000000
